<svg width="1143" height="960" viewBox="0 0 1143 960" fill="none" xmlns="http://www.w3.org/2000/svg">
<path d="M829.064 752.893H669.299L397.178 779.337L122.951 752.893V105L396.041 124.833L675.029 105L947.951 142.463L940.945 640.002L829.064 752.893Z" fill="url(#paint0_linear)"/>
<path d="M823.856 743.794H667.586L401.418 769.524L133.19 743.794V113.412L400.306 132.709L673.19 113.412L940.142 149.863L933.289 633.955L823.856 743.794Z" fill="white"/>
<path d="M824.736 726.631H660.154L409.096 750.901L156.095 726.631V132.035L408.047 150.237L665.44 132.035L917.237 166.417V633.6L824.736 726.631Z" fill="#047AED"/>
<path d="M838 730L564.089 585.083L701.845 127.387L644 127.387L589.789 313.893L253 127.387L134 127.387L572.41 371.634L457.419 753.688H512L546.71 642.823L758 742L838 730Z" fill="white"/>
<path d="M813.083 742.811L815.019 620.076L933.289 624.847L813.083 742.811Z" fill="url(#paint1_linear)"/>
<path d="M156.095 388.993L518.844 549.605L542.951 599.576L518.951 624.576L156.095 452.489V388.993Z" fill="white"/>
<path d="M823.856 742.811L825.618 629.555L933.289 633.957L823.856 742.811Z" fill="white"/>
<path d="M648.951 647.576L800.309 150.451L860.519 158.672L690.951 673.576L648.951 647.576Z" fill="white"/>
<path opacity="0.1" d="M408.047 750.901L659.999 726.631V132.035L408.047 150.237" fill="black"/>
<path d="M638.799 348.436C638.799 396.465 551.834 532.478 551.834 532.478C551.834 532.478 464.869 396.465 464.869 348.436C464.865 337.013 467.112 325.701 471.481 315.147C475.849 304.592 482.254 295.002 490.33 286.924C498.406 278.845 507.994 272.437 518.547 268.064C529.1 263.692 540.411 261.442 551.834 261.442C563.257 261.442 574.568 263.692 585.121 268.064C595.674 272.437 605.262 278.845 613.338 286.924C621.414 295.002 627.819 304.592 632.187 315.147C636.556 325.701 638.803 337.013 638.799 348.436V348.436Z" fill="#FF5252"/>
<path d="M551.834 368.66C566.355 368.66 578.126 356.889 578.126 342.369C578.126 327.848 566.355 316.077 551.834 316.077C537.314 316.077 525.542 327.848 525.542 342.369C525.542 356.889 537.314 368.66 551.834 368.66Z" fill="white"/>
<path d="M784.67 388.993L917.237 423.009V486.505L754.951 428.576L784.67 388.993Z" fill="white"/>
<path d="M279.434 510.983L245.951 742.576L283.951 750.576L334.01 536.866L333.951 506.576L279.434 510.983Z" fill="white"/>
<path d="M278.084 208.643L240.514 426.371L269.604 442.076L338.951 208.576L278.084 208.643Z" fill="white"/>
<path d="M349.951 173.576C354.369 173.576 357.951 169.994 357.951 165.576C357.951 161.157 354.369 157.576 349.951 157.576C345.532 157.576 341.951 161.157 341.951 165.576C341.951 169.994 345.532 173.576 349.951 173.576Z" fill="#FF5252"/>
<path d="M253.951 587.576C258.369 587.576 261.951 583.994 261.951 579.576C261.951 575.157 258.369 571.576 253.951 571.576C249.532 571.576 245.951 575.157 245.951 579.576C245.951 583.994 249.532 587.576 253.951 587.576Z" fill="#FF5252"/>
<path d="M245.951 646.576C250.369 646.576 253.951 642.994 253.951 638.576C253.951 634.157 250.369 630.576 245.951 630.576C241.532 630.576 237.951 634.157 237.951 638.576C237.951 642.994 241.532 646.576 245.951 646.576Z" fill="#FF5252"/>
<path d="M330.951 632.576C335.369 632.576 338.951 628.994 338.951 624.576C338.951 620.157 335.369 616.576 330.951 616.576C326.532 616.576 322.951 620.157 322.951 624.576C322.951 628.994 326.532 632.576 330.951 632.576Z" fill="#FF5252"/>
<path d="M193.951 392.576C198.369 392.576 201.951 388.994 201.951 384.576C201.951 380.157 198.369 376.576 193.951 376.576C189.532 376.576 185.951 380.157 185.951 384.576C185.951 388.994 189.532 392.576 193.951 392.576Z" fill="#FF5252"/>
<path d="M823.951 384.576C828.369 384.576 831.951 380.994 831.951 376.576C831.951 372.157 828.369 368.576 823.951 368.576C819.532 368.576 815.951 372.157 815.951 376.576C815.951 380.994 819.532 384.576 823.951 384.576Z" fill="#FF5252"/>
<path d="M754.951 662.576C759.369 662.576 762.951 658.994 762.951 654.576C762.951 650.157 759.369 646.576 754.951 646.576C750.532 646.576 746.951 650.157 746.951 654.576C746.951 658.994 750.532 662.576 754.951 662.576Z" fill="#FF5252"/>
<defs>
<linearGradient id="paint0_linear" x1="535.451" y1="779.337" x2="535.451" y2="105" gradientUnits="userSpaceOnUse">
<stop stop-color="#808080" stop-opacity="0.25"/>
<stop offset="0.53514" stop-color="#808080" stop-opacity="0.12"/>
<stop offset="1" stop-color="#808080" stop-opacity="0.1"/>
</linearGradient>
<linearGradient id="paint1_linear" x1="873.186" y1="742.811" x2="873.186" y2="620.076" gradientUnits="userSpaceOnUse">
<stop stop-opacity="0.12"/>
<stop offset="0.55135" stop-opacity="0.09"/>
<stop offset="1" stop-opacity="0.02"/>
</linearGradient>
</defs>
</svg>
