<svg width="1032" height="742" viewBox="0 0 1032 742" fill="none" xmlns="http://www.w3.org/2000/svg">
<g clip-path="url(#clip0)">
<path d="M0 741.253H166" stroke="#3F3D56" stroke-miterlimit="10"/>
<path d="M960.602 127.753H262.398C251.685 127.753 243 136.437 243 147.15V607.355C243 618.068 251.685 626.753 262.398 626.753H960.602C971.315 626.753 980 618.068 980 607.355V147.15C980 136.437 971.315 127.753 960.602 127.753Z" fill="#F2F2F2"/>
<path d="M938.102 96.2528H239.898C229.185 96.2528 220.5 104.937 220.5 115.65V575.855C220.5 586.568 229.185 595.253 239.898 595.253H938.102C948.815 595.253 957.5 586.568 957.5 575.855V115.65C957.5 104.937 948.815 96.2528 938.102 96.2528Z" stroke="#3F3D56" stroke-miterlimit="10"/>
<path d="M220.5 144.093H957.5" stroke="#3F3D56" stroke-miterlimit="10"/>
<path opacity="0.3" d="M854.907 256.253H668.093C664.175 256.253 661 259.428 661 263.345V280.16C661 284.077 664.175 287.253 668.093 287.253H854.907C858.825 287.253 862 284.077 862 280.16V263.345C862 259.428 858.825 256.253 854.907 256.253Z" fill="#047AED"/>
<path opacity="0.3" d="M893.407 342.253H629.593C625.675 342.253 622.5 345.428 622.5 349.345V360.16C622.5 364.077 625.675 367.253 629.593 367.253H893.407C897.325 367.253 900.5 364.077 900.5 360.16V349.345C900.5 345.428 897.325 342.253 893.407 342.253Z" fill="#047AED"/>
<path opacity="0.3" d="M893.407 410.253H629.593C625.675 410.253 622.5 413.428 622.5 417.345V428.16C622.5 432.077 625.675 435.253 629.593 435.253H893.407C897.325 435.253 900.5 432.077 900.5 428.16V417.345C900.5 413.428 897.325 410.253 893.407 410.253Z" fill="#047AED"/>
<path opacity="0.3" d="M893.407 478.253H629.593C625.675 478.253 622.5 481.428 622.5 485.345V496.16C622.5 500.077 625.675 503.253 629.593 503.253H893.407C897.325 503.253 900.5 500.077 900.5 496.16V485.345C900.5 481.428 897.325 478.253 893.407 478.253Z" fill="#047AED"/>
<path d="M864.907 246.253H678.093C674.175 246.253 671 249.428 671 253.345V270.16C671 274.077 674.175 277.253 678.093 277.253H864.907C868.825 277.253 872 274.077 872 270.16V253.345C872 249.428 868.825 246.253 864.907 246.253Z" stroke="#3F3D56" stroke-miterlimit="10"/>
<path d="M903.407 332.253H639.593C635.675 332.253 632.5 335.428 632.5 339.345V350.16C632.5 354.077 635.675 357.253 639.593 357.253H903.407C907.325 357.253 910.5 354.077 910.5 350.16V339.345C910.5 335.428 907.325 332.253 903.407 332.253Z" stroke="#3F3D56" stroke-miterlimit="10"/>
<path d="M903.407 400.253H639.593C635.675 400.253 632.5 403.428 632.5 407.345V418.16C632.5 422.077 635.675 425.253 639.593 425.253H903.407C907.325 425.253 910.5 422.077 910.5 418.16V407.345C910.5 403.428 907.325 400.253 903.407 400.253Z" stroke="#3F3D56" stroke-miterlimit="10"/>
<path d="M903.407 468.253H639.593C635.675 468.253 632.5 471.428 632.5 475.345V486.16C632.5 490.077 635.675 493.253 639.593 493.253H903.407C907.325 493.253 910.5 490.077 910.5 486.16V475.345C910.5 471.428 907.325 468.253 903.407 468.253Z" stroke="#3F3D56" stroke-miterlimit="10"/>
<path opacity="0.3" d="M276.5 141.253C284.784 141.253 291.5 134.537 291.5 126.253C291.5 117.969 284.784 111.253 276.5 111.253C268.216 111.253 261.5 117.969 261.5 126.253C261.5 134.537 268.216 141.253 276.5 141.253Z" fill="#047AED"/>
<path opacity="0.3" d="M318.5 141.253C326.784 141.253 333.5 134.537 333.5 126.253C333.5 117.969 326.784 111.253 318.5 111.253C310.216 111.253 303.5 117.969 303.5 126.253C303.5 134.537 310.216 141.253 318.5 141.253Z" fill="#047AED"/>
<path opacity="0.3" d="M360.5 141.253C368.784 141.253 375.5 134.537 375.5 126.253C375.5 117.969 368.784 111.253 360.5 111.253C352.216 111.253 345.5 117.969 345.5 126.253C345.5 134.537 352.216 141.253 360.5 141.253Z" fill="#047AED"/>
<path d="M282.5 135.253C290.784 135.253 297.5 128.537 297.5 120.253C297.5 111.969 290.784 105.253 282.5 105.253C274.216 105.253 267.5 111.969 267.5 120.253C267.5 128.537 274.216 135.253 282.5 135.253Z" stroke="#3F3D56" stroke-miterlimit="10"/>
<path d="M324.5 135.253C332.784 135.253 339.5 128.537 339.5 120.253C339.5 111.969 332.784 105.253 324.5 105.253C316.216 105.253 309.5 111.969 309.5 120.253C309.5 128.537 316.216 135.253 324.5 135.253Z" stroke="#3F3D56" stroke-miterlimit="10"/>
<path d="M366.5 135.253C374.784 135.253 381.5 128.537 381.5 120.253C381.5 111.969 374.784 105.253 366.5 105.253C358.216 105.253 351.5 111.969 351.5 120.253C351.5 128.537 358.216 135.253 366.5 135.253Z" stroke="#3F3D56" stroke-miterlimit="10"/>
<path d="M453.354 574.253C450.843 562.684 450.177 546.883 451.021 535.892C451.021 535.892 438.323 480.106 428.332 474.901L428.328 474.904C428.175 475.101 423.327 481.458 422.711 501.128C422.087 521.111 415.012 534.225 415.012 534.225C415.012 534.225 417.301 559.133 415.992 574.253L453.354 574.253Z" fill="#047AED"/>
<path d="M545.728 219.253H315.272C312.15 219.253 309.059 219.868 306.175 221.062C303.291 222.257 300.67 224.008 298.463 226.215C296.255 228.423 294.504 231.043 293.31 233.927C292.115 236.812 291.5 239.903 291.5 243.024V550.481C291.5 553.603 292.115 556.694 293.31 559.578C294.504 562.462 296.255 565.083 298.463 567.29C300.67 569.498 303.291 571.249 306.175 572.443C309.059 573.638 312.15 574.253 315.272 574.253H396.127C393.427 563.053 390.07 545.562 393.469 533.4L393.468 533.392L393.47 533.398C393.629 532.83 393.797 532.27 393.986 531.727C396.321 523.834 397.1 515.563 396.278 507.373C397.779 500.375 397.779 493.139 396.278 486.141C393.78 474.486 392.032 463.036 392.032 463.036C392.032 463.036 390.655 447.634 391.857 438.192C391.883 437.984 391.914 437.788 391.943 437.586C391.519 437.49 391.281 437.434 391.281 437.434C391.281 437.434 394.82 421.406 396.069 411.207C396.364 408.799 396.752 405.746 397.172 402.492C396.019 402.3 394.884 402.013 393.779 401.632C382.539 397.677 379 361.874 379 361.874V350.53C379 350.53 375.253 333.149 388.367 325.447C400.995 318.031 406.037 316.001 406.393 315.861C406.489 315.792 406.583 315.729 406.681 315.653C408.109 314.533 409.238 313.079 409.971 311.42C409.989 311.134 409.993 310.85 409.983 310.568C409.77 306.501 406.939 302.802 404.253 299.575C401.962 296.823 399.671 294.07 397.38 291.318C396.595 290.498 395.991 289.522 395.609 288.453C395.464 287.863 395.401 287.256 395.422 286.649C395.42 286.425 395.422 286.2 395.426 285.976C395.464 283.924 395.519 281.872 395.594 279.821C395.658 278.029 396.109 275.767 397.864 275.399C398.777 275.207 399.985 275.541 400.468 274.743C400.63 274.414 400.671 274.039 400.585 273.683C400.579 273.709 400.577 273.737 400.57 273.763C400.564 273.73 400.558 273.696 400.552 273.663C400.191 272.226 399.973 270.757 399.901 269.277C399.882 268.609 399.977 267.943 400.183 267.307C401.2 264.332 404.701 263.111 407.795 262.55C410.889 261.988 414.361 261.506 416.303 259.033C416.823 258.212 417.387 257.419 417.992 256.659C418.883 255.849 419.977 255.297 421.158 255.062C424.998 254.09 429.055 254.45 432.664 256.083C434.16 256.766 435.664 257.686 437.305 257.582C439.01 257.474 440.467 256.274 442.15 255.982C444.869 255.51 447.469 257.547 448.809 259.96C449.66 261.495 450.086 263.229 450.042 264.983C450.074 266.73 449.444 268.423 448.278 269.724C447.108 270.966 445.361 271.818 444.876 273.454C444.678 274.119 444.724 274.836 444.549 275.508C444.527 275.592 444.491 275.671 444.463 275.752C444.495 275.794 444.53 275.833 444.561 275.875C446.608 278.572 447.98 281.72 448.563 285.056C449.146 288.391 448.922 291.818 447.911 295.049C446.9 298.281 445.13 301.223 442.75 303.632C440.37 306.04 437.449 307.845 434.229 308.894C434.221 309.105 434.213 309.316 434.214 309.527C434.154 310.839 434.376 312.149 434.866 313.368C435.356 314.587 436.102 315.686 437.054 316.592L455.601 324.198C455.601 324.198 466.767 322.845 470.796 339.508C471.442 342.277 471.674 345.127 471.486 347.965C471.339 350.478 471.681 354.901 474.543 360.625C479.122 369.784 478.082 390.807 468.715 392.889C459.842 394.861 456.391 394.032 456.051 393.939L456.031 394.307C456.177 398.252 457.581 432.276 462.678 436.393C464.088 437.532 463.819 438.301 462.662 438.819L462.665 438.822C462.665 438.822 462.674 439.041 462.696 439.434C462.849 441.923 463.636 451.399 467.048 456.791C471.004 463.036 470.589 499.049 470.589 499.049L473.293 520.281C473.293 520.281 471.629 533.394 473.293 535.683C474.239 536.981 475.384 557.086 476.198 574.253H545.728C552.033 574.253 558.079 571.748 562.537 567.29C566.995 562.832 569.5 556.786 569.5 550.481V243.024C569.5 239.903 568.885 236.812 567.69 233.927C566.496 231.043 564.745 228.423 562.537 226.215C560.33 224.008 557.709 222.257 554.825 221.062C551.941 219.868 548.85 219.253 545.728 219.253V219.253Z" fill="#047AED"/>
<path d="M521.728 192.253H291.272C278.143 192.253 267.5 202.896 267.5 216.024V523.481C267.5 536.61 278.143 547.253 291.272 547.253H521.728C534.857 547.253 545.5 536.61 545.5 523.481V216.024C545.5 202.896 534.857 192.253 521.728 192.253Z" stroke="#3F3D56" stroke-miterlimit="10"/>
<path d="M100.824 321.631C100.824 321.631 91.5 318.874 89.5 321.874C87.5 324.874 92.2267 346.621 92.2267 346.621L112.773 347.87L105.602 329.763L100.824 321.631Z" fill="#2F2E41"/>
<path d="M28.9442 500.221C28.9442 500.221 47.6388 541.263 33.2418 539.974C18.8448 538.684 13.2578 500.221 13.2578 500.221H28.9442Z" fill="#A0616A"/>
<path d="M151.211 495.945C151.211 495.945 143.01 540.292 156.667 535.556C170.323 530.819 166.431 492.147 166.431 492.147L151.211 495.945Z" fill="#A0616A"/>
<path d="M96.8466 311.34C96.8466 311.34 96.6318 331.969 104.582 333.043C112.533 334.117 100.07 345.076 100.07 345.076L85.8877 347.87L65.474 346.366L56.449 334.762C56.449 334.762 72.3502 327.241 65.474 303.819L96.8466 311.34Z" fill="#A0616A"/>
<path opacity="0.1" d="M96.8466 311.34C96.8466 311.34 96.6318 331.969 104.582 333.043C112.533 334.117 100.07 345.076 100.07 345.076L85.8877 347.87L65.474 346.366L56.449 334.762C56.449 334.762 72.3502 327.241 65.474 303.819L96.8466 311.34Z" fill="black"/>
<path d="M133.376 485.824C133.376 485.824 143.476 507.527 135.525 575.644C135.525 575.644 137.889 599.711 135.955 604.223C134.021 608.736 118.12 669.977 118.12 669.977C118.12 669.977 97.7061 674.489 94.9127 660.952C94.9127 660.952 97.7062 641.613 97.4913 638.604C97.2764 635.596 102.004 602.719 102.004 602.719L92.3341 539.114L85.0281 596.487C85.0281 596.487 85.0281 613.033 82.6644 616.686C80.3007 620.339 82.6644 693.829 82.6644 693.829C82.6644 693.829 89.3257 705.003 79.2263 705.217C69.1269 705.432 60.1019 705.003 59.2423 697.911C58.3828 690.82 57.953 683.729 55.8042 679.432C53.6554 675.134 50.862 625.926 51.5066 608.736C52.1513 591.545 37.3244 503.229 42.0518 493.989C46.7792 484.749 133.376 485.824 133.376 485.824Z" fill="#2F2E41"/>
<path d="M85.8877 319.076C100.129 319.076 111.673 307.531 111.673 293.29C111.673 279.049 100.129 267.504 85.8877 267.504C71.6466 267.504 60.102 279.049 60.102 293.29C60.102 307.531 71.6466 319.076 85.8877 319.076Z" fill="#A0616A"/>
<path d="M60.1019 335.192C60.1019 335.192 75.7883 346.795 98.5657 337.556C98.5657 337.556 106.087 333.903 105.442 328.316C104.797 322.729 121.128 373.226 121.128 373.226L137.674 461.112L136.815 496.997C136.815 496.997 129.509 493.344 106.731 501.51C83.9538 509.675 46.7793 492.27 46.7793 492.27L48.0686 400.086L49.3579 346.366L52.796 334.547C52.796 334.547 54.515 331.324 60.1019 335.192Z" fill="#F2F2F2"/>
<path d="M97.5632 320.767C97.5632 320.767 101.359 320.15 105.012 325.952C108.665 331.754 117.26 335.407 117.26 335.407C117.26 335.407 138.104 336.696 141.112 347.87C144.121 359.044 151.641 374.3 155.294 402.45C158.947 430.599 166.253 475.509 167.328 479.162C168.402 482.815 165.824 493.989 168.832 497.427C171.84 500.865 147.559 500.865 147.559 500.865C147.559 500.865 145.41 483.245 143.906 483.245C142.401 483.245 142.831 495.064 144.335 503.659C145.84 512.254 133.376 503.659 133.376 503.659C133.376 503.659 123.707 464.336 114.467 428.88C105.227 393.425 99.855 373.87 101.574 365.92C103.293 357.969 108.02 335.192 104.582 333.043C101.144 330.894 97.5632 320.767 97.5632 320.767Z" fill="#2F2E41"/>
<path d="M66.5755 320.748C66.5755 320.748 60.9615 323.803 46.7793 333.903C32.5971 344.002 22.9275 351.738 22.9275 351.738C22.9275 351.738 17.3406 356.035 13.9025 381.606C10.4644 407.177 2.72864 473.361 5.73699 481.741C8.74534 490.121 9.81974 495.064 8.74533 500.006C7.67092 504.948 31.3079 504.733 31.7376 503.659C32.1674 502.584 31.093 483.03 32.1674 482.6C33.2418 482.171 39.0436 494.204 40.118 504.303C41.1924 514.403 53.6555 522.353 56.449 522.353C59.2425 522.353 73.6395 464.121 73.8544 424.368C74.0693 384.615 69.127 351.093 65.474 346.366C61.821 341.638 66.5755 320.748 66.5755 320.748Z" fill="#2F2E41"/>
<path d="M104.367 671.911C104.367 671.911 106.087 667.183 112.103 668.688C118.12 670.192 122.203 664.82 122.203 664.82C122.203 664.82 125.426 664.39 123.277 668.473C121.128 672.555 119.409 675.349 119.409 675.349C119.409 675.349 132.302 704.788 123.922 711.879C115.541 718.97 105.872 714.672 105.872 714.672C105.872 714.672 96.4169 708.011 96.8467 690.391C96.8467 690.391 96.4169 684.804 91.2598 675.779C86.1026 666.754 82.2348 653.001 88.4663 650.423C94.6979 647.844 96.3018 647.748 96.3018 647.748C96.3018 647.748 93.3858 661.086 100.918 665.746L104.367 671.911Z" fill="#3F3D56"/>
<path d="M64.3996 705.217C64.3996 705.217 59.2424 695.548 67.8377 694.473C76.4329 693.399 85.6728 692.754 85.2431 697.267C84.8133 701.779 83.7389 708.656 83.7389 708.656L85.2431 713.598C85.2431 713.598 85.6728 725.846 87.177 727.35C88.6811 728.854 96.8466 741.747 79.4413 741.747C62.0359 741.747 56.8787 739.813 58.3829 735.73C59.8871 731.648 60.3168 711.449 60.3168 711.449L64.3996 705.217Z" fill="#3F3D56"/>
<path d="M77.7222 272.661C77.7222 272.661 89.7556 275.885 95.9871 277.174C102.219 278.463 101.574 274.81 101.574 274.81C101.574 274.81 109.74 275.885 109.31 275.025C108.88 274.166 112.748 269.653 108.235 264.496C103.723 259.339 105.012 255.471 105.012 255.471H101.144L100.07 253.967H94.0532C94.0532 253.967 89.5407 252.248 77.7222 253.967C65.9037 255.686 49.7876 256.116 48.4983 263.207C47.2091 270.298 40.5477 279.108 42.9114 283.191C45.2751 287.273 58.8126 304.034 60.1019 311.125C61.3912 318.216 67.4113 319.792 67.1947 315.351C66.9781 310.91 60.9615 295.439 66.1186 294.794C71.2758 294.15 80.0859 281.042 77.7222 272.661Z" fill="#2F2E41"/>
</g>
<defs>
<clipPath id="clip0">
<rect width="1032" height="741.753" fill="white"/>
</clipPath>
</defs>
</svg>
