<svg width="748" height="526" viewBox="0 0 748 526" fill="none" xmlns="http://www.w3.org/2000/svg">
<g clip-path="url(#clip0)">
<path d="M609.437 348.188C610.274 347.102 610.862 345.845 611.161 344.507C611.459 343.17 611.461 341.782 611.165 340.444C610.87 339.105 610.284 337.848 609.45 336.76C608.616 335.672 607.554 334.78 606.337 334.147L608.191 312.8L595.493 308.509L593.299 338.693C592.371 340.806 592.251 343.187 592.961 345.383C593.671 347.579 595.161 349.438 597.151 350.608C599.14 351.779 601.489 352.179 603.754 351.733C606.018 351.286 608.04 350.025 609.437 348.188V348.188Z" fill="#FFB8B8"/>
<path d="M672.805 514.162L661.373 514.161L655.936 470.065L672.809 470.066L672.805 514.162Z" fill="#FFB8B8"/>
<path d="M653.207 510.894H675.255V524.776H639.325C639.325 522.953 639.684 521.148 640.381 519.464C641.079 517.779 642.102 516.249 643.391 514.96C644.68 513.671 646.21 512.648 647.894 511.951C649.579 511.253 651.384 510.894 653.207 510.894V510.894Z" fill="#2F2E41"/>
<path d="M646.855 484.902L635.753 487.63L619.947 446.107L636.332 442.08L646.855 484.902Z" fill="#FFB8B8"/>
<path d="M627.043 486.407L648.454 481.146L651.767 494.627L616.875 503.2C616.44 501.43 616.358 499.591 616.633 497.789C616.909 495.987 617.537 494.257 618.481 492.698C619.425 491.138 620.667 489.78 622.136 488.701C623.606 487.621 625.273 486.842 627.043 486.407Z" fill="#2F2E41"/>
<path d="M659.425 500.104C658.381 500.106 657.374 499.721 656.599 499.022C655.824 498.324 655.335 497.363 655.228 496.325L642.073 373.771L630.626 411.247L646.839 469.78C647.118 470.784 647.017 471.855 646.554 472.788C646.092 473.721 645.301 474.451 644.334 474.836L631.444 479.993C630.913 480.205 630.345 480.308 629.774 480.294C629.202 480.281 628.639 480.152 628.119 479.915C627.599 479.678 627.132 479.338 626.747 478.915C626.362 478.493 626.067 477.997 625.879 477.457L606.008 420.448C603.833 414.223 602.87 407.639 603.173 401.053L605.946 339.529L678.989 342.622L677.849 494.837C677.835 495.897 677.426 496.913 676.703 497.687C675.979 498.461 674.993 498.938 673.936 499.023L659.752 500.092C659.642 500.1 659.533 500.104 659.425 500.104Z" fill="#2F2E41"/>
<path d="M647.328 203.374C660.892 203.374 671.889 192.378 671.889 178.813C671.889 165.248 660.892 154.252 647.328 154.252C633.763 154.252 622.767 165.248 622.767 178.813C622.767 192.378 633.763 203.374 647.328 203.374Z" fill="#FFB8B8"/>
<path d="M665.389 346.625C658.921 346.625 650.885 346.095 642.572 345.548C631.213 344.801 619.466 344.028 610.697 344.536C609.513 344.653 608.319 344.465 607.228 343.99C606.137 343.515 605.186 342.769 604.466 341.822C595.426 330.248 609.369 285.114 609.967 283.199L621.313 232.731C623.809 221.631 631.784 213.443 642.126 211.362C651.806 209.418 661.169 213.294 667.174 221.737C667.493 222.185 667.811 222.645 668.129 223.116C687.681 252.073 676.623 324.012 675.882 328.655C676.914 329.892 682.499 336.887 680.964 341.746C680.34 343.723 678.643 345.07 675.922 345.75C672.455 346.437 668.922 346.73 665.389 346.625Z" fill="#F4F4F4"/>
<path d="M611.094 346.647C608.869 346.647 605.868 345.827 601.821 344.143C600.082 343.419 594.79 341.217 601.215 285.071C604.371 257.491 608.892 230.103 608.937 229.83L608.98 229.566L609.224 229.456C609.341 229.403 620.886 224.11 622.894 217.31C622.963 217.074 623.041 216.846 623.128 216.625C623.68 215.113 624.795 213.873 626.24 213.164C627.684 212.454 629.347 212.33 630.882 212.817C632.502 213.204 633.915 214.193 634.833 215.584C635.75 216.975 636.105 218.662 635.824 220.305C635.125 224.74 633.78 229.05 631.833 233.096C626.4 244.306 622.719 274.024 622.683 274.323C622.475 276.861 617.544 336.995 616.594 341.558C616.263 343.152 615.652 345.103 613.861 346.048C613.002 346.472 612.051 346.678 611.094 346.647V346.647Z" fill="#2F2E41"/>
<path d="M637.925 344.343C637.476 344.343 637.041 344.193 636.686 343.917C629.461 338.427 641.155 271.866 648.091 248.901C649.48 244.303 650.716 240.365 651.767 237.195C653.682 231.509 655.018 225.644 655.756 219.689C656.138 216.464 656.968 214.621 658.293 214.057C659.214 213.664 660.298 213.93 661.513 214.85C667.92 214.534 674.145 217.152 679.915 220.031L685.107 222.622L690.933 325.77C690.768 332.354 677.792 337.001 672.129 337.298C663.04 337.774 646.719 339.254 639.529 343.807C639.056 344.135 638.5 344.321 637.925 344.343V344.343Z" fill="#2F2E41"/>
<path d="M605.468 324.989C605.382 324.989 605.296 324.987 605.209 324.981L593.442 324.257C592.856 324.221 592.284 324.064 591.762 323.795C591.241 323.526 590.781 323.151 590.412 322.695C590.043 322.238 589.773 321.71 589.619 321.143C589.466 320.577 589.432 319.985 589.519 319.404L594.844 284.126L604.869 234.628C605.116 233.409 605.616 232.255 606.337 231.241C607.059 230.228 607.985 229.377 609.056 228.745C610.127 228.112 611.32 227.712 612.555 227.569C613.791 227.427 615.043 227.546 616.23 227.918V227.918C618.259 228.566 619.99 229.918 621.11 231.729C622.23 233.541 622.666 235.693 622.338 237.798L614.374 287.395L609.659 321.342C609.514 322.351 609.011 323.275 608.242 323.945C607.473 324.615 606.488 324.985 605.468 324.989V324.989Z" fill="#2F2E41"/>
<path d="M645.67 286.374C646.388 285.206 647.353 284.21 648.497 283.455C649.642 282.701 650.938 282.206 652.294 282.007C653.65 281.807 655.034 281.907 656.347 282.3C657.66 282.693 658.872 283.369 659.895 284.281L679.19 274.961L687.714 285.305L660.281 298.084C658.635 299.702 656.453 300.661 654.148 300.778C651.843 300.895 649.575 300.162 647.774 298.719C645.973 297.275 644.764 295.221 644.377 292.946C643.989 290.671 644.449 288.333 645.67 286.374V286.374Z" fill="#FFB8B8"/>
<path d="M672.473 296.383C671.523 296.383 670.601 296.063 669.854 295.475C669.108 294.887 668.581 294.065 668.359 293.142L665.556 281.492C665.342 280.616 665.415 279.694 665.765 278.863C666.114 278.031 666.721 277.334 667.496 276.873L684.398 266.757L675.758 235.124C675.149 232.875 675.282 230.489 676.138 228.322C676.953 226.268 678.382 224.515 680.229 223.302C682.077 222.088 684.253 221.474 686.462 221.542C688.671 221.609 690.806 222.356 692.575 223.681C694.345 225.005 695.663 226.842 696.351 228.943L705.89 258.068C707.062 261.619 707.071 265.45 705.917 269.006C704.762 272.562 702.503 275.657 699.469 277.841L674.951 295.58C674.23 296.102 673.363 296.383 672.473 296.383V296.383Z" fill="#2F2E41"/>
<path d="M651.815 202.77C655.511 202.85 659.183 202.147 662.588 200.707C665.993 199.266 669.055 197.122 671.573 194.414C674.09 191.706 676.006 188.496 677.195 184.995C678.383 181.494 678.817 177.781 678.469 174.1C678.12 170.419 676.996 166.853 675.171 163.638C673.346 160.422 670.862 157.629 667.88 155.442C664.899 153.255 661.489 151.724 657.874 150.949C654.258 150.173 650.52 150.172 646.904 150.945C641.503 147.665 635.223 145.459 628.93 146.02C622.636 146.581 616.411 150.318 614.058 156.182C611.704 162.046 614.233 169.776 620.085 172.159C623.837 173.687 628.073 172.946 632.077 172.33C636.081 171.714 640.449 171.312 643.934 173.378C647.418 175.444 648.985 180.983 645.864 183.566C644.21 184.99 643.028 186.883 642.477 188.995C641.926 191.107 642.032 193.336 642.78 195.386C644.348 199.443 648.629 202.701 651.815 202.77Z" fill="#2F2E41"/>
<path d="M489.874 0H16.6803C12.2576 0.00400351 8.01726 1.76268 4.88997 4.88997C1.76267 8.01726 0.00400617 12.2576 0 16.6803V67.5991C0.00400352 72.0217 1.76267 76.2621 4.88997 79.3894C8.01726 82.5167 12.2576 84.2754 16.6803 84.2794H489.874C494.297 84.2754 498.537 82.5167 501.664 79.3894C504.792 76.2621 506.55 72.0217 506.554 67.5991V16.6803C506.55 12.2576 504.792 8.01726 501.664 4.88997C498.537 1.76268 494.297 0.00400351 489.874 0V0ZM504.798 67.5991C504.793 71.5556 503.219 75.3484 500.421 78.1461C497.623 80.9438 493.83 82.518 489.874 82.5236H16.6803C12.7238 82.518 8.93096 80.9438 6.13329 78.1461C3.33561 75.3484 1.76141 71.5556 1.75581 67.5991V16.6803C1.76141 12.7238 3.3356 8.93095 6.13327 6.13329C8.93094 3.33562 12.7238 1.76141 16.6803 1.75581H489.874C493.83 1.76141 497.623 3.33562 500.421 6.13329C503.219 8.93095 504.793 12.7238 504.798 16.6803V67.5991Z" fill="#3F3D56"/>
<path d="M489.874 204.553H16.6803C12.2579 204.548 8.01817 202.789 4.8911 199.662C1.76402 196.535 0.00502349 192.295 0 187.873V136.954C0.00502349 132.532 1.76402 128.292 4.8911 125.165C8.01817 122.038 12.258 120.279 16.6803 120.274H489.874C494.296 120.279 498.536 122.038 501.663 125.165C504.79 128.292 506.549 132.532 506.554 136.954V187.873C506.549 192.295 504.79 196.535 501.663 199.662C498.536 202.789 494.296 204.548 489.874 204.553V204.553ZM16.6803 122.03C12.7234 122.034 8.92991 123.608 6.13199 126.406C3.33406 129.204 1.76024 132.997 1.75581 136.954V187.873C1.76025 191.83 3.33407 195.623 6.13199 198.421C8.92991 201.219 12.7234 202.793 16.6803 202.797H489.874C493.831 202.793 497.624 201.219 500.422 198.421C503.22 195.623 504.794 191.83 504.798 187.873V136.954C504.794 132.997 503.22 129.204 500.422 126.406C497.624 123.608 493.831 122.034 489.874 122.03L16.6803 122.03Z" fill="#CCCCCC"/>
<path d="M489.874 324.827H16.6803C12.258 324.822 8.01817 323.063 4.8911 319.936C1.76402 316.809 0.00502349 312.569 0 308.146V257.228C0.00502349 252.805 1.76402 248.566 4.8911 245.438C8.01817 242.311 12.2579 240.552 16.6803 240.547H489.874C494.296 240.552 498.536 242.311 501.663 245.438C504.79 248.566 506.549 252.805 506.554 257.228V308.146C506.549 312.569 504.79 316.809 501.663 319.936C498.536 323.063 494.296 324.822 489.874 324.827V324.827ZM16.6803 242.303C12.7234 242.308 8.92991 243.881 6.13199 246.679C3.33406 249.477 1.76025 253.271 1.75581 257.228V308.146C1.76023 312.103 3.33405 315.897 6.13197 318.695C8.9299 321.493 12.7234 323.067 16.6803 323.071H489.874C493.831 323.067 497.624 321.493 500.422 318.695C503.22 315.897 504.794 312.103 504.798 308.147V257.228C504.794 253.271 503.22 249.477 500.422 246.679C497.624 243.881 493.831 242.308 489.874 242.303H16.6803Z" fill="#CCCCCC"/>
<path d="M80.6192 71.1719C74.8772 71.1719 69.264 69.4693 64.4897 66.2792C59.7153 63.0891 55.9942 58.5549 53.7968 53.25C51.5993 47.945 51.0244 42.1076 52.1446 36.4759C53.2648 30.8442 56.0298 25.6711 60.09 21.6109C64.1502 17.5506 69.3233 14.7855 74.955 13.6653C80.5867 12.5451 86.4241 13.12 91.7291 15.3174C97.034 17.5147 101.568 21.2359 104.758 26.0102C107.948 30.7845 109.651 36.3976 109.651 42.1397C109.642 49.8368 106.581 57.2161 101.138 62.6588C95.6956 68.1015 88.3163 71.1631 80.6192 71.1719Z" fill="#F4F4F4"/>
<path d="M447.005 65.8432H137.103C135.24 65.8432 133.454 65.1033 132.136 63.7862C130.819 62.4691 130.079 60.6827 130.079 58.82C130.079 56.9573 130.819 55.1709 132.136 53.8538C133.454 52.5366 135.24 51.7967 137.103 51.7967H447.005C448.868 51.7967 450.654 52.5366 451.971 53.8538C453.288 55.1709 454.028 56.9573 454.028 58.82C454.028 60.6827 453.288 62.4691 451.971 63.7862C450.654 65.1033 448.868 65.8432 447.005 65.8432V65.8432Z" fill="#CCCCCC"/>
<path d="M346.045 35.9943H137.103C136.18 35.9954 135.265 35.8146 134.412 35.4621C133.559 35.1097 132.784 34.5925 132.131 33.9402C131.478 33.2879 130.96 32.5133 130.606 31.6607C130.253 30.808 130.071 29.8941 130.071 28.971C130.071 28.048 130.253 27.1341 130.606 26.2814C130.96 25.4288 131.478 24.6541 132.131 24.0019C132.784 23.3496 133.559 22.8324 134.412 22.48C135.265 22.1275 136.18 21.9467 137.103 21.9478H346.045C347.908 21.9478 349.694 22.6877 351.011 24.0048C352.329 25.3219 353.069 27.1084 353.069 28.971C353.069 30.8337 352.329 32.6201 351.011 33.9372C349.694 35.2544 347.908 35.9943 346.045 35.9943Z" fill="#CCCCCC"/>
<path d="M80.6192 191.445C74.8772 191.445 69.2641 189.743 64.4899 186.553C59.7156 183.362 55.9945 178.828 53.7971 173.523C51.5997 168.218 51.0248 162.381 52.1451 156.749C53.2653 151.118 56.0304 145.945 60.0906 141.884C64.1508 137.824 69.3238 135.059 74.9555 133.939C80.5872 132.819 86.4245 133.394 91.7294 135.591C97.0343 137.789 101.569 141.51 104.759 146.284C107.949 151.058 109.651 156.672 109.651 162.414C109.642 170.111 106.581 177.49 101.138 182.933C95.6956 188.375 88.3163 191.437 80.6192 191.445V191.445Z" fill="#E6E6E6"/>
<path d="M447.005 186.117H137.103C135.24 186.117 133.454 185.377 132.136 184.06C130.819 182.743 130.079 180.956 130.079 179.094C130.079 177.231 130.819 175.445 132.136 174.128C133.454 172.81 135.24 172.07 137.103 172.07H447.005C448.868 172.07 450.654 172.81 451.971 174.128C453.288 175.445 454.028 177.231 454.028 179.094C454.028 180.956 453.288 182.743 451.971 184.06C450.654 185.377 448.868 186.117 447.005 186.117V186.117Z" fill="#E6E6E6"/>
<path d="M346.045 156.268H137.103C135.24 156.268 133.454 155.528 132.136 154.211C130.819 152.894 130.079 151.107 130.079 149.245C130.079 147.382 130.819 145.596 132.136 144.279C133.454 142.961 135.24 142.221 137.103 142.221H346.045C347.908 142.221 349.694 142.961 351.011 144.279C352.329 145.596 353.069 147.382 353.069 149.245C353.069 151.107 352.329 152.894 351.011 154.211C349.694 155.528 347.908 156.268 346.045 156.268V156.268Z" fill="#E6E6E6"/>
<path d="M80.6192 311.719C74.8772 311.719 69.264 310.017 64.4897 306.827C59.7153 303.636 55.9942 299.102 53.7968 293.797C51.5993 288.492 51.0244 282.655 52.1446 277.023C53.2648 271.392 56.0298 266.218 60.09 262.158C64.1502 258.098 69.3233 255.333 74.955 254.213C80.5867 253.092 86.4241 253.667 91.7291 255.865C97.034 258.062 101.568 261.783 104.758 266.558C107.948 271.332 109.651 276.945 109.651 282.687C109.642 290.384 106.581 297.763 101.138 303.206C95.6956 308.649 88.3163 311.71 80.6192 311.719V311.719Z" fill="#E6E6E6"/>
<path d="M447.005 306.391H137.103C136.18 306.392 135.265 306.211 134.412 305.858C133.559 305.506 132.784 304.989 132.131 304.337C131.478 303.684 130.96 302.91 130.606 302.057C130.253 301.204 130.071 300.29 130.071 299.367C130.071 298.444 130.253 297.53 130.606 296.678C130.96 295.825 131.478 295.05 132.131 294.398C132.784 293.746 133.559 293.229 134.412 292.876C135.265 292.524 136.18 292.343 137.103 292.344H447.005C448.866 292.346 450.65 293.087 451.966 294.404C453.281 295.721 454.02 297.506 454.02 299.367C454.02 301.229 453.281 303.014 451.966 304.331C450.65 305.648 448.866 306.388 447.005 306.391V306.391Z" fill="#E6E6E6"/>
<path d="M346.045 276.542H137.103C135.24 276.542 133.454 275.802 132.136 274.485C130.819 273.168 130.079 271.381 130.079 269.518C130.079 267.656 130.819 265.869 132.136 264.552C133.454 263.235 135.24 262.495 137.103 262.495H346.045C347.908 262.495 349.694 263.235 351.011 264.552C352.329 265.869 353.069 267.656 353.069 269.518C353.069 271.381 352.329 273.168 351.011 274.485C349.694 275.802 347.908 276.542 346.045 276.542V276.542Z" fill="#E6E6E6"/>
<path d="M79.1363 52.3517C78.416 52.3529 77.7148 52.1199 77.1385 51.6877L77.1028 51.6609L69.5781 45.9047C69.2293 45.6376 68.9366 45.3045 68.7167 44.9242C68.4968 44.544 68.354 44.1241 68.2963 43.6887C68.2387 43.2532 68.2675 42.8107 68.3809 42.3863C68.4944 41.962 68.6903 41.5641 68.9576 41.2155C69.2249 40.8669 69.5582 40.5744 69.9385 40.3546C70.3188 40.1349 70.7388 39.9922 71.1742 39.9348C71.6097 39.8774 72.0523 39.9063 72.4766 40.0199C72.9009 40.1336 73.2986 40.3297 73.6471 40.5971L78.521 44.3347L90.0384 29.309C90.3054 28.9606 90.6385 28.6683 91.0186 28.4487C91.3986 28.229 91.8182 28.0864 92.2534 28.0289C92.6885 27.9714 93.1308 28.0002 93.5548 28.1137C93.9789 28.2271 94.3764 28.4229 94.7248 28.69L94.7258 28.6907L94.6543 28.79L94.7277 28.6907C95.4305 29.2309 95.8903 30.0278 96.0062 30.9065C96.1222 31.7853 95.8847 32.6742 95.346 33.3781L81.7991 51.0437C81.4856 51.4507 81.0827 51.7801 80.6214 52.0062C80.1602 52.2324 79.653 52.3492 79.1393 52.3477L79.1363 52.3517Z" fill="#047AED"/>
<path d="M746.62 526H548.62C548.354 526 548.1 525.895 547.913 525.707C547.725 525.52 547.62 525.265 547.62 525C547.62 524.735 547.725 524.48 547.913 524.293C548.1 524.105 548.354 524 548.62 524H746.62C746.885 524 747.139 524.105 747.327 524.293C747.514 524.48 747.62 524.735 747.62 525C747.62 525.265 747.514 525.52 747.327 525.707C747.139 525.895 746.885 526 746.62 526Z" fill="#CCCCCC"/>
</g>
<defs>
<clipPath id="clip0">
<rect width="747.62" height="526" fill="white"/>
</clipPath>
</defs>
</svg>
