<svg width="946" height="724" viewBox="0 0 946 724" fill="none" xmlns="http://www.w3.org/2000/svg">
<g clip-path="url(#clip0)">
<path d="M328.867 9.45861L280.305 359.87L896.902 445.32L945.464 94.9089L328.867 9.45861Z" fill="url(#paint0_linear)"/>
<path d="M939.096 98.902L331.81 14.7421L284.575 355.585L891.861 439.745L939.096 98.902Z" fill="white"/>
<g opacity="0.3">
<path opacity="0.3" d="M924.197 111.457L342.972 30.9087L299.881 341.847L881.106 422.395L924.197 111.457Z" fill="#047AED"/>
<g opacity="0.3">
<g opacity="0.3">
<path d="M342.5 63.5L541.8 416.84L685.31 436.73L900.5 278L757.5 91.5L387.52 395.45L187.09 320.14L541.8 24.5L815 408.5" fill="#047AED"/>
<path d="M342.5 63.5L541.8 416.84L685.31 436.73L900.5 278L757.5 91.5L387.52 395.45L187.09 320.14L541.8 24.5L815 408.5" stroke="white" stroke-width="5" stroke-miterlimit="10"/>
</g>
</g>
</g>
<path d="M574.85 62.35C570.69 92.35 508.98 155.09 508.98 155.09C508.98 155.09 462.32 77.33 466.48 47.33C467.391 40.1513 469.718 33.2247 473.325 26.9513C476.932 20.6779 481.747 15.1824 487.493 10.783C493.238 6.38361 499.799 3.16769 506.796 1.3215C513.793 -0.524703 521.087 -0.964503 528.255 0.0275656C535.423 1.01963 542.323 3.42386 548.555 7.10102C554.788 10.7782 560.229 15.6552 564.563 21.4497C568.898 27.2442 572.04 33.8411 573.807 40.8583C575.575 47.8755 575.933 55.1736 574.86 62.33L574.85 62.35Z" fill="url(#paint1_linear)"/>
<path d="M571.29 63.3C567.39 91.44 509.5 150.3 509.5 150.3C509.5 150.3 465.73 77.36 469.63 49.22C471.498 35.7404 478.645 23.5551 489.498 15.3447C500.351 7.13439 514.02 3.57156 527.5 5.44001C540.98 7.30846 553.165 14.4551 561.375 25.3079C569.586 36.1606 573.148 49.8304 571.28 63.31L571.29 63.3Z" fill="#FF5252"/>
<path d="M546.434 55.6999C548.384 41.6296 538.585 28.6464 524.548 26.701C510.51 24.7557 497.55 34.5848 495.6 48.6551C493.65 62.7254 503.449 75.7087 517.486 77.6541C531.524 79.5994 544.484 69.7702 546.434 55.6999Z" fill="white"/>
<path d="M0 213.51V239.22V723.06H734.81V239.22V213.51H0Z" fill="url(#paint2_linear)"/>
<path d="M727.02 245.21H10.9V714H727.02V245.21Z" fill="white"/>
<path d="M727.02 222.91H10.9V257.4H727.02V222.91Z" fill="#F5F5F5"/>
<path d="M38.15 248C42.7671 248 46.51 244.257 46.51 239.64C46.51 235.023 42.7671 231.28 38.15 231.28C33.5329 231.28 29.79 235.023 29.79 239.64C29.79 244.257 33.5329 248 38.15 248Z" fill="#FF5252"/>
<path d="M61.15 248C65.7671 248 69.51 244.257 69.51 239.64C69.51 235.023 65.7671 231.28 61.15 231.28C56.5329 231.28 52.79 235.023 52.79 239.64C52.79 244.257 56.5329 248 61.15 248Z" fill="#FFFF00"/>
<path d="M84.14 248C88.7571 248 92.5 244.257 92.5 239.64C92.5 235.023 88.7571 231.28 84.14 231.28C79.5229 231.28 75.78 235.023 75.78 239.64C75.78 244.257 79.5229 248 84.14 248Z" fill="#69F0AE"/>
<path opacity="0.5" d="M433.51 370.55H301.81V384.66H433.51V370.55Z" fill="#047AED"/>
<path d="M350.94 431.18H206.7V445.29H350.94V431.18Z" fill="#E0E0E0"/>
<path d="M384.39 445.29H528.63V431.18H384.39V445.29Z" fill="#E0E0E0"/>
<path d="M528.1 461.49H206.17V475.6H528.1V461.49Z" fill="#E0E0E0"/>
<path d="M528.1 491.8H206.17V505.91H528.1V491.8Z" fill="#E0E0E0"/>
<path d="M434.04 556.61H300.25V582.74H434.04V556.61Z" fill="url(#paint3_linear)"/>
<path d="M432.99 558.98H301.29V580.36H432.99V558.98Z" fill="#047AED"/>
</g>
<defs>
<linearGradient id="paint0_linear" x1="589.362" y1="402.7" x2="637.922" y2="52.2987" gradientUnits="userSpaceOnUse">
<stop stop-color="#808080" stop-opacity="0.25"/>
<stop offset="0.54" stop-color="#808080" stop-opacity="0.12"/>
<stop offset="1" stop-color="#808080" stop-opacity="0.1"/>
</linearGradient>
<linearGradient id="paint1_linear" x1="63341.3" y1="46142.2" x2="66667.6" y2="22140.2" gradientUnits="userSpaceOnUse">
<stop stop-color="#808080" stop-opacity="0.25"/>
<stop offset="0.54" stop-color="#808080" stop-opacity="0.12"/>
<stop offset="1" stop-color="#808080" stop-opacity="0.1"/>
</linearGradient>
<linearGradient id="paint2_linear" x1="269969" y1="368649" x2="269969" y2="109008" gradientUnits="userSpaceOnUse">
<stop stop-color="#808080" stop-opacity="0.25"/>
<stop offset="0.54" stop-color="#808080" stop-opacity="0.12"/>
<stop offset="1" stop-color="#808080" stop-opacity="0.1"/>
</linearGradient>
<linearGradient id="paint3_linear" x1="49419.9" y1="15783.6" x2="49419.9" y2="15100.8" gradientUnits="userSpaceOnUse">
<stop stop-color="#808080" stop-opacity="0.25"/>
<stop offset="0.54" stop-color="#808080" stop-opacity="0.12"/>
<stop offset="1" stop-color="#808080" stop-opacity="0.1"/>
</linearGradient>
<clipPath id="clip0">
<rect width="945.48" height="723.06" fill="white"/>
</clipPath>
</defs>
</svg>
